<svg width="25" height="25" viewBox="0 0 25 25" fill="none" xmlns="http://www.w3.org/2000/svg">
<path d="M12.5 -1.80248e-10C14.1576 -2.04149e-10 15.7473 0.65848 16.9194 1.83058C18.0915 3.00268 18.75 4.5924 18.75 6.25C18.75 7.9076 18.0915 9.49732 16.9194 10.6694C15.7473 11.8415 14.1576 12.5 12.5 12.5C10.8424 12.5 9.25269 11.8415 8.08058 10.6694C6.90848 9.49732 6.25 7.9076 6.25 6.25C6.25 4.5924 6.90848 3.00268 8.08058 1.83058C9.25269 0.65848 10.8424 -1.56344e-10 12.5 -1.80248e-10ZM12.5 25C12.5 25 25 25 25 21.875C25 18.125 18.9063 14.0625 12.5 14.0625C6.09375 14.0625 2.61359e-10 18.125 3.15434e-10 21.875C3.60496e-10 25 12.5 25 12.5 25Z" fill="#58CCFF"/>
</svg>
